# xmcd CD database file
#
# Track frame offsets:
#	151
#	10581
#	24052
#	43449
#	61530
#	74307
#	91481
#	105594
#	125748
#	139091
#	150706
#	170781
#	183352
#	197088
#	210494
#	224784
#	235957
#	255346
#	267764
#	282537
#
# Disc length: 3969 seconds
#
# Revision: 0
# Processed by: cddbd v1.5.1PL2 Copyright (c) Steve Scherf et al.
# Submitted via: CDex 1.70beta2
#
DISCID=240f7f14
DTITLE=Various Artist - History of Jazz
DYEAR=1944
DGENRE=Jazz
TTITLE0=I GOT RHYTHM (Gershwin) Art Tatum Trio - Jan 5
TTITLE1=WHAT IS THIS THING CALLED LOVE (Porter) Nat King Cole Trio - Jan 17
TTITLE2=BILLIE'S BLUES (Holiday) Billie Holiday at Metropolitan Opera House - Jan 18
TTITLE3=ROMPIN' IN 44 (Hall) Edmond Hall's All Star Quintet - Jan 25
TTITLE4=YESTERDAYS (Kern) Coleman Hawkins and His Orchestra - Feb 16
TTITLE5=MEMORIES OF YOU (Blake-Razaf) Big Sid Catlett Quartet feat Ben Webster - Mar 18
TTITLE6=AND HER TEARS FLOWED LIKE WINE (Greene-Lawrence-Kenton) Anita O' Day with Stan Kenton - May 20
TTITLE7=NIGHT AND DAY (Porter) Johnny Hodges acc by Eddie Heywood and Shelly Manne - May 26
TTITLE8=PAGIN' MR PAGE (Page) Hot Lips Page's Swing Seven - Jun 14
TTITLE9=SOME OF THESE DAYS (Brooks) George Wettling Jazz Trio - Jul 1
TTITLE10=SHE'S FUNNY THAT WAY (Whiting-Moret) Ike Quebec Quintet - Jul 18
TTITLE11=CREOLE SONG (Ory) Kid Ory Creole Jazz Band - Aug 3
TTITLE12=SKYLINER (Bennett) Charlie Barnet and His Orchestra - Aug 3
TTITLE13=OPUS ONE (Oliver) Tommy Dorsey and His Orchestra - Aug 13 (or Nov 14)
TTITLE14=RED CROSS (Parker-Grimes) Tiny Grimes Quintet with Charlie Parker - Sep 15
TTITLE15=LUST FOR LICKS (Jones) Jonah Jones Sextet - Sep 20
TTITLE16=MEMPHIS BLUES (Handy-Norton) Muggsy Spanier and His Ragtimers - Sep 27
TTITLE17=FIREBIRD (Guarnieri) Johnny Guarnieri Trio - Nov 7
TTITLE18=I'M BEGINNING TO SEE THE LIGHT (James-Ellington-Hodges-George) Joya Sherrill w Duke Ellington - Dec 1
TTITLE19=TAPS MILLER (Basie-Russell) Count Basie and His Orchestra - Dec 6
EXTD=YEAR: 1944
EXTT0=
EXTT1=
EXTT2=
EXTT3=
EXTT4=
EXTT5=
EXTT6=
EXTT7=
EXTT8=
EXTT9=
EXTT10=
EXTT11=
EXTT12=
EXTT13=
EXTT14=
EXTT15=
EXTT16=
EXTT17=
EXTT18=
EXTT19=
PLAYORDER=
